<mxfile host="Electron" modified="2024-05-01T14:42:56.014Z" agent="Mozilla/5.0 (Windows NT 10.0; Win64; x64) AppleWebKit/537.36 (KHTML, like Gecko) draw.io/24.2.5 Chrome/120.0.6099.109 Electron/28.1.0 Safari/537.36" etag="PkWGtz5ULjrNgmaxyTsp" version="24.2.5" type="device">
  <diagram name="第 1 页" id="xsRyf-g6MqnaJvs-Ea_N">
    <mxGraphModel dx="2074" dy="1205" grid="1" gridSize="10" guides="1" tooltips="1" connect="1" arrows="1" fold="1" page="1" pageScale="1" pageWidth="827" pageHeight="1169" math="0" shadow="0">
      <root>
        <mxCell id="0" />
        <mxCell id="1" parent="0" />
        <mxCell id="zfg7dTt8C2hyI2b0fm2k-69" value="" style="rounded=0;whiteSpace=wrap;html=1;fillColor=#fff2cc;strokeColor=#d6b656;" vertex="1" parent="1">
          <mxGeometry x="80" y="230" width="490" height="180" as="geometry" />
        </mxCell>
        <mxCell id="zfg7dTt8C2hyI2b0fm2k-1" value="" style="whiteSpace=wrap;html=1;aspect=fixed;fillColor=#ffe6cc;strokeColor=#d79b00;" vertex="1" parent="1">
          <mxGeometry x="100" y="460" width="450" height="450" as="geometry" />
        </mxCell>
        <mxCell id="zfg7dTt8C2hyI2b0fm2k-10" value="" style="whiteSpace=wrap;html=1;aspect=fixed;fillColor=#fff2cc;strokeColor=#d6b656;" vertex="1" parent="1">
          <mxGeometry x="175.93" y="535.93" width="298.13" height="298.13" as="geometry" />
        </mxCell>
        <mxCell id="zfg7dTt8C2hyI2b0fm2k-9" value="" style="whiteSpace=wrap;html=1;aspect=fixed;fillColor=#f8cecc;strokeColor=#b85450;" vertex="1" parent="1">
          <mxGeometry x="221.88" y="581.88" width="206.25" height="206.25" as="geometry" />
        </mxCell>
        <mxCell id="zfg7dTt8C2hyI2b0fm2k-8" value="" style="whiteSpace=wrap;html=1;aspect=fixed;fillColor=#e1d5e7;strokeColor=#9673a6;" vertex="1" parent="1">
          <mxGeometry x="258.76" y="618.76" width="132.5" height="132.5" as="geometry" />
        </mxCell>
        <mxCell id="zfg7dTt8C2hyI2b0fm2k-2" value="" style="ellipse;whiteSpace=wrap;html=1;aspect=fixed;fillColor=#d5e8d4;strokeColor=#82b366;" vertex="1" parent="1">
          <mxGeometry x="305" y="665" width="40" height="40" as="geometry" />
        </mxCell>
        <mxCell id="zfg7dTt8C2hyI2b0fm2k-4" value="Eye" style="text;html=1;align=center;verticalAlign=middle;whiteSpace=wrap;rounded=0;" vertex="1" parent="1">
          <mxGeometry x="295.01" y="669.99" width="60" height="30" as="geometry" />
        </mxCell>
        <mxCell id="zfg7dTt8C2hyI2b0fm2k-5" value="" style="endArrow=none;html=1;rounded=0;entryX=0.75;entryY=0;entryDx=0;entryDy=0;" edge="1" parent="1" target="zfg7dTt8C2hyI2b0fm2k-1">
          <mxGeometry width="50" height="50" relative="1" as="geometry">
            <mxPoint x="345" y="680" as="sourcePoint" />
            <mxPoint x="395" y="630" as="targetPoint" />
          </mxGeometry>
        </mxCell>
        <mxCell id="zfg7dTt8C2hyI2b0fm2k-6" value="" style="endArrow=none;html=1;rounded=0;entryX=0.25;entryY=0;entryDx=0;entryDy=0;" edge="1" parent="1" target="zfg7dTt8C2hyI2b0fm2k-1">
          <mxGeometry width="50" height="50" relative="1" as="geometry">
            <mxPoint x="305" y="690" as="sourcePoint" />
            <mxPoint x="368" y="530" as="targetPoint" />
          </mxGeometry>
        </mxCell>
        <mxCell id="zfg7dTt8C2hyI2b0fm2k-11" value="Level 6" style="text;html=1;align=center;verticalAlign=middle;whiteSpace=wrap;rounded=0;" vertex="1" parent="1">
          <mxGeometry x="295.01" y="721.26" width="60" height="30" as="geometry" />
        </mxCell>
        <mxCell id="zfg7dTt8C2hyI2b0fm2k-12" value="Level 7" style="text;html=1;align=center;verticalAlign=middle;whiteSpace=wrap;rounded=0;" vertex="1" parent="1">
          <mxGeometry x="295.01" y="758.13" width="60" height="30" as="geometry" />
        </mxCell>
        <mxCell id="zfg7dTt8C2hyI2b0fm2k-13" value="Level 8" style="text;html=1;align=center;verticalAlign=middle;whiteSpace=wrap;rounded=0;" vertex="1" parent="1">
          <mxGeometry x="295.01" y="804.06" width="60" height="30" as="geometry" />
        </mxCell>
        <mxCell id="zfg7dTt8C2hyI2b0fm2k-15" value="" style="shape=table;startSize=0;container=1;collapsible=0;childLayout=tableLayout;fontSize=16;" vertex="1" parent="1">
          <mxGeometry x="100" y="350" width="450" height="30" as="geometry" />
        </mxCell>
        <mxCell id="zfg7dTt8C2hyI2b0fm2k-16" value="" style="shape=tableRow;horizontal=0;startSize=0;swimlaneHead=0;swimlaneBody=0;strokeColor=inherit;top=0;left=0;bottom=0;right=0;collapsible=0;dropTarget=0;fillColor=none;points=[[0,0.5],[1,0.5]];portConstraint=eastwest;fontSize=16;" vertex="1" parent="zfg7dTt8C2hyI2b0fm2k-15">
          <mxGeometry width="450" height="30" as="geometry" />
        </mxCell>
        <mxCell id="zfg7dTt8C2hyI2b0fm2k-17" value="" style="shape=partialRectangle;html=1;whiteSpace=wrap;connectable=0;strokeColor=#005700;overflow=hidden;fillColor=#008a00;top=0;left=0;bottom=0;right=0;pointerEvents=1;fontSize=16;fontColor=#ffffff;" vertex="1" parent="zfg7dTt8C2hyI2b0fm2k-16">
          <mxGeometry width="24" height="30" as="geometry">
            <mxRectangle width="24" height="30" as="alternateBounds" />
          </mxGeometry>
        </mxCell>
        <mxCell id="zfg7dTt8C2hyI2b0fm2k-18" value="" style="shape=partialRectangle;html=1;whiteSpace=wrap;connectable=0;strokeColor=#005700;overflow=hidden;fillColor=#008a00;top=0;left=0;bottom=0;right=0;pointerEvents=1;fontSize=16;fontColor=#ffffff;" vertex="1" parent="zfg7dTt8C2hyI2b0fm2k-16">
          <mxGeometry x="24" width="23" height="30" as="geometry">
            <mxRectangle width="23" height="30" as="alternateBounds" />
          </mxGeometry>
        </mxCell>
        <mxCell id="zfg7dTt8C2hyI2b0fm2k-19" value="" style="shape=partialRectangle;html=1;whiteSpace=wrap;connectable=0;strokeColor=#6F0000;overflow=hidden;fillColor=#a20025;top=0;left=0;bottom=0;right=0;pointerEvents=1;fontSize=16;fontColor=#ffffff;" vertex="1" parent="zfg7dTt8C2hyI2b0fm2k-16">
          <mxGeometry x="47" width="23" height="30" as="geometry">
            <mxRectangle width="23" height="30" as="alternateBounds" />
          </mxGeometry>
        </mxCell>
        <mxCell id="zfg7dTt8C2hyI2b0fm2k-28" style="shape=partialRectangle;html=1;whiteSpace=wrap;connectable=0;strokeColor=inherit;overflow=hidden;fillColor=none;top=0;left=0;bottom=0;right=0;pointerEvents=1;fontSize=16;" vertex="1" parent="zfg7dTt8C2hyI2b0fm2k-16">
          <mxGeometry x="70" width="24" height="30" as="geometry">
            <mxRectangle width="24" height="30" as="alternateBounds" />
          </mxGeometry>
        </mxCell>
        <mxCell id="zfg7dTt8C2hyI2b0fm2k-29" style="shape=partialRectangle;html=1;whiteSpace=wrap;connectable=0;strokeColor=inherit;overflow=hidden;fillColor=none;top=0;left=0;bottom=0;right=0;pointerEvents=1;fontSize=16;" vertex="1" parent="zfg7dTt8C2hyI2b0fm2k-16">
          <mxGeometry x="94" width="24" height="30" as="geometry">
            <mxRectangle width="24" height="30" as="alternateBounds" />
          </mxGeometry>
        </mxCell>
        <mxCell id="zfg7dTt8C2hyI2b0fm2k-30" style="shape=partialRectangle;html=1;whiteSpace=wrap;connectable=0;strokeColor=inherit;overflow=hidden;fillColor=none;top=0;left=0;bottom=0;right=0;pointerEvents=1;fontSize=16;" vertex="1" parent="zfg7dTt8C2hyI2b0fm2k-16">
          <mxGeometry x="118" width="24" height="30" as="geometry">
            <mxRectangle width="24" height="30" as="alternateBounds" />
          </mxGeometry>
        </mxCell>
        <mxCell id="zfg7dTt8C2hyI2b0fm2k-31" style="shape=partialRectangle;html=1;whiteSpace=wrap;connectable=0;strokeColor=inherit;overflow=hidden;fillColor=none;top=0;left=0;bottom=0;right=0;pointerEvents=1;fontSize=16;" vertex="1" parent="zfg7dTt8C2hyI2b0fm2k-16">
          <mxGeometry x="142" width="23" height="30" as="geometry">
            <mxRectangle width="23" height="30" as="alternateBounds" />
          </mxGeometry>
        </mxCell>
        <mxCell id="zfg7dTt8C2hyI2b0fm2k-32" style="shape=partialRectangle;html=1;whiteSpace=wrap;connectable=0;strokeColor=inherit;overflow=hidden;fillColor=none;top=0;left=0;bottom=0;right=0;pointerEvents=1;fontSize=16;" vertex="1" parent="zfg7dTt8C2hyI2b0fm2k-16">
          <mxGeometry x="165" width="23" height="30" as="geometry">
            <mxRectangle width="23" height="30" as="alternateBounds" />
          </mxGeometry>
        </mxCell>
        <mxCell id="zfg7dTt8C2hyI2b0fm2k-33" style="shape=partialRectangle;html=1;whiteSpace=wrap;connectable=0;strokeColor=inherit;overflow=hidden;fillColor=none;top=0;left=0;bottom=0;right=0;pointerEvents=1;fontSize=16;" vertex="1" parent="zfg7dTt8C2hyI2b0fm2k-16">
          <mxGeometry x="188" width="24" height="30" as="geometry">
            <mxRectangle width="24" height="30" as="alternateBounds" />
          </mxGeometry>
        </mxCell>
        <mxCell id="zfg7dTt8C2hyI2b0fm2k-34" style="shape=partialRectangle;html=1;whiteSpace=wrap;connectable=0;strokeColor=inherit;overflow=hidden;fillColor=none;top=0;left=0;bottom=0;right=0;pointerEvents=1;fontSize=16;" vertex="1" parent="zfg7dTt8C2hyI2b0fm2k-16">
          <mxGeometry x="212" width="24" height="30" as="geometry">
            <mxRectangle width="24" height="30" as="alternateBounds" />
          </mxGeometry>
        </mxCell>
        <mxCell id="zfg7dTt8C2hyI2b0fm2k-35" style="shape=partialRectangle;html=1;whiteSpace=wrap;connectable=0;strokeColor=#005700;overflow=hidden;fillColor=#008a00;top=0;left=0;bottom=0;right=0;pointerEvents=1;fontSize=16;fontColor=#ffffff;" vertex="1" parent="zfg7dTt8C2hyI2b0fm2k-16">
          <mxGeometry x="236" width="22" height="30" as="geometry">
            <mxRectangle width="22" height="30" as="alternateBounds" />
          </mxGeometry>
        </mxCell>
        <mxCell id="zfg7dTt8C2hyI2b0fm2k-36" style="shape=partialRectangle;html=1;whiteSpace=wrap;connectable=0;strokeColor=inherit;overflow=hidden;fillColor=none;top=0;left=0;bottom=0;right=0;pointerEvents=1;fontSize=16;" vertex="1" parent="zfg7dTt8C2hyI2b0fm2k-16">
          <mxGeometry x="258" width="25" height="30" as="geometry">
            <mxRectangle width="25" height="30" as="alternateBounds" />
          </mxGeometry>
        </mxCell>
        <mxCell id="zfg7dTt8C2hyI2b0fm2k-37" style="shape=partialRectangle;html=1;whiteSpace=wrap;connectable=0;strokeColor=inherit;overflow=hidden;fillColor=none;top=0;left=0;bottom=0;right=0;pointerEvents=1;fontSize=16;" vertex="1" parent="zfg7dTt8C2hyI2b0fm2k-16">
          <mxGeometry x="283" width="24" height="30" as="geometry">
            <mxRectangle width="24" height="30" as="alternateBounds" />
          </mxGeometry>
        </mxCell>
        <mxCell id="zfg7dTt8C2hyI2b0fm2k-38" style="shape=partialRectangle;html=1;whiteSpace=wrap;connectable=0;strokeColor=inherit;overflow=hidden;fillColor=none;top=0;left=0;bottom=0;right=0;pointerEvents=1;fontSize=16;" vertex="1" parent="zfg7dTt8C2hyI2b0fm2k-16">
          <mxGeometry x="307" width="24" height="30" as="geometry">
            <mxRectangle width="24" height="30" as="alternateBounds" />
          </mxGeometry>
        </mxCell>
        <mxCell id="zfg7dTt8C2hyI2b0fm2k-39" style="shape=partialRectangle;html=1;whiteSpace=wrap;connectable=0;strokeColor=inherit;overflow=hidden;fillColor=none;top=0;left=0;bottom=0;right=0;pointerEvents=1;fontSize=16;" vertex="1" parent="zfg7dTt8C2hyI2b0fm2k-16">
          <mxGeometry x="331" width="23" height="30" as="geometry">
            <mxRectangle width="23" height="30" as="alternateBounds" />
          </mxGeometry>
        </mxCell>
        <mxCell id="zfg7dTt8C2hyI2b0fm2k-40" style="shape=partialRectangle;html=1;whiteSpace=wrap;connectable=0;strokeColor=inherit;overflow=hidden;fillColor=none;top=0;left=0;bottom=0;right=0;pointerEvents=1;fontSize=16;" vertex="1" parent="zfg7dTt8C2hyI2b0fm2k-16">
          <mxGeometry x="354" width="24" height="30" as="geometry">
            <mxRectangle width="24" height="30" as="alternateBounds" />
          </mxGeometry>
        </mxCell>
        <mxCell id="zfg7dTt8C2hyI2b0fm2k-41" style="shape=partialRectangle;html=1;whiteSpace=wrap;connectable=0;strokeColor=#005700;overflow=hidden;fillColor=#008a00;top=0;left=0;bottom=0;right=0;pointerEvents=1;fontSize=16;fontColor=#ffffff;" vertex="1" parent="zfg7dTt8C2hyI2b0fm2k-16">
          <mxGeometry x="378" width="24" height="30" as="geometry">
            <mxRectangle width="24" height="30" as="alternateBounds" />
          </mxGeometry>
        </mxCell>
        <mxCell id="zfg7dTt8C2hyI2b0fm2k-42" style="shape=partialRectangle;html=1;whiteSpace=wrap;connectable=0;strokeColor=inherit;overflow=hidden;fillColor=none;top=0;left=0;bottom=0;right=0;pointerEvents=1;fontSize=16;" vertex="1" parent="zfg7dTt8C2hyI2b0fm2k-16">
          <mxGeometry x="402" width="24" height="30" as="geometry">
            <mxRectangle width="24" height="30" as="alternateBounds" />
          </mxGeometry>
        </mxCell>
        <mxCell id="zfg7dTt8C2hyI2b0fm2k-43" style="shape=partialRectangle;html=1;whiteSpace=wrap;connectable=0;strokeColor=inherit;overflow=hidden;fillColor=none;top=0;left=0;bottom=0;right=0;pointerEvents=1;fontSize=16;" vertex="1" parent="zfg7dTt8C2hyI2b0fm2k-16">
          <mxGeometry x="426" width="24" height="30" as="geometry">
            <mxRectangle width="24" height="30" as="alternateBounds" />
          </mxGeometry>
        </mxCell>
        <mxCell id="zfg7dTt8C2hyI2b0fm2k-44" value="" style="endArrow=classic;startArrow=classic;html=1;rounded=0;exitX=0;exitY=1;exitDx=0;exitDy=0;entryX=0.25;entryY=1;entryDx=0;entryDy=0;fontSize=20;" edge="1" parent="1" source="zfg7dTt8C2hyI2b0fm2k-8" target="zfg7dTt8C2hyI2b0fm2k-4">
          <mxGeometry width="50" height="50" relative="1" as="geometry">
            <mxPoint x="390" y="440" as="sourcePoint" />
            <mxPoint x="440" y="390" as="targetPoint" />
          </mxGeometry>
        </mxCell>
        <mxCell id="zfg7dTt8C2hyI2b0fm2k-45" value="64" style="edgeLabel;html=1;align=center;verticalAlign=middle;resizable=0;points=[];" vertex="1" connectable="0" parent="zfg7dTt8C2hyI2b0fm2k-44">
          <mxGeometry x="-0.0148" y="3" relative="1" as="geometry">
            <mxPoint as="offset" />
          </mxGeometry>
        </mxCell>
        <mxCell id="zfg7dTt8C2hyI2b0fm2k-46" value="" style="endArrow=classic;startArrow=classic;html=1;rounded=0;exitX=1;exitY=1;exitDx=0;exitDy=0;entryX=0.75;entryY=1;entryDx=0;entryDy=0;" edge="1" parent="1" source="zfg7dTt8C2hyI2b0fm2k-9" target="zfg7dTt8C2hyI2b0fm2k-4">
          <mxGeometry width="50" height="50" relative="1" as="geometry">
            <mxPoint x="269" y="761" as="sourcePoint" />
            <mxPoint x="320" y="710" as="targetPoint" />
          </mxGeometry>
        </mxCell>
        <mxCell id="zfg7dTt8C2hyI2b0fm2k-50" value="128" style="edgeLabel;html=1;align=center;verticalAlign=middle;resizable=0;points=[];" vertex="1" connectable="0" parent="zfg7dTt8C2hyI2b0fm2k-46">
          <mxGeometry x="0.1717" y="-1" relative="1" as="geometry">
            <mxPoint as="offset" />
          </mxGeometry>
        </mxCell>
        <mxCell id="zfg7dTt8C2hyI2b0fm2k-53" value="" style="endArrow=classic;startArrow=classic;html=1;rounded=0;entryX=1;entryY=0;entryDx=0;entryDy=0;" edge="1" parent="1" target="zfg7dTt8C2hyI2b0fm2k-10">
          <mxGeometry width="50" height="50" relative="1" as="geometry">
            <mxPoint x="341.26" y="669.99" as="sourcePoint" />
            <mxPoint x="391.26" y="619.99" as="targetPoint" />
          </mxGeometry>
        </mxCell>
        <mxCell id="zfg7dTt8C2hyI2b0fm2k-54" value="256" style="edgeLabel;html=1;align=center;verticalAlign=middle;resizable=0;points=[];" vertex="1" connectable="0" parent="zfg7dTt8C2hyI2b0fm2k-53">
          <mxGeometry x="0.0323" y="1" relative="1" as="geometry">
            <mxPoint as="offset" />
          </mxGeometry>
        </mxCell>
        <mxCell id="zfg7dTt8C2hyI2b0fm2k-55" value="" style="shape=curlyBracket;whiteSpace=wrap;html=1;rounded=1;labelPosition=left;verticalLabelPosition=middle;align=right;verticalAlign=middle;direction=south;" vertex="1" parent="1">
          <mxGeometry x="100" y="320" width="240" height="20" as="geometry" />
        </mxCell>
        <mxCell id="zfg7dTt8C2hyI2b0fm2k-56" value="" style="shape=curlyBracket;whiteSpace=wrap;html=1;rounded=1;labelPosition=left;verticalLabelPosition=middle;align=right;verticalAlign=middle;direction=south;" vertex="1" parent="1">
          <mxGeometry x="340" y="320" width="140" height="20" as="geometry" />
        </mxCell>
        <mxCell id="zfg7dTt8C2hyI2b0fm2k-57" value="" style="shape=curlyBracket;whiteSpace=wrap;html=1;rounded=1;labelPosition=left;verticalLabelPosition=middle;align=right;verticalAlign=middle;direction=south;" vertex="1" parent="1">
          <mxGeometry x="480" y="320" width="70" height="20" as="geometry" />
        </mxCell>
        <mxCell id="zfg7dTt8C2hyI2b0fm2k-60" value="Level 6" style="text;html=1;align=center;verticalAlign=middle;whiteSpace=wrap;rounded=0;fontSize=20;" vertex="1" parent="1">
          <mxGeometry x="170" y="280" width="100" height="30" as="geometry" />
        </mxCell>
        <mxCell id="zfg7dTt8C2hyI2b0fm2k-61" value="Level 7" style="text;html=1;align=center;verticalAlign=middle;whiteSpace=wrap;rounded=0;fontSize=20;" vertex="1" parent="1">
          <mxGeometry x="365" y="280" width="100" height="30" as="geometry" />
        </mxCell>
        <mxCell id="zfg7dTt8C2hyI2b0fm2k-62" value="Level 8" style="text;html=1;align=center;verticalAlign=middle;whiteSpace=wrap;rounded=0;fontSize=20;" vertex="1" parent="1">
          <mxGeometry x="465" y="280" width="100" height="30" as="geometry" />
        </mxCell>
        <mxCell id="zfg7dTt8C2hyI2b0fm2k-63" value="" style="endArrow=classic;html=1;rounded=0;entryX=0.018;entryY=1.022;entryDx=0;entryDy=0;entryPerimeter=0;fillColor=#008a00;strokeColor=#005700;" edge="1" parent="1" target="zfg7dTt8C2hyI2b0fm2k-16">
          <mxGeometry width="50" height="50" relative="1" as="geometry">
            <mxPoint x="290" y="620" as="sourcePoint" />
            <mxPoint x="330" y="470" as="targetPoint" />
          </mxGeometry>
        </mxCell>
        <mxCell id="zfg7dTt8C2hyI2b0fm2k-65" value="" style="endArrow=classic;html=1;rounded=0;entryX=0.074;entryY=1.133;entryDx=0;entryDy=0;entryPerimeter=0;fillColor=#60a917;strokeColor=#2D7600;exitX=0.5;exitY=0;exitDx=0;exitDy=0;" edge="1" parent="1" source="zfg7dTt8C2hyI2b0fm2k-8" target="zfg7dTt8C2hyI2b0fm2k-16">
          <mxGeometry width="50" height="50" relative="1" as="geometry">
            <mxPoint x="370" y="640" as="sourcePoint" />
            <mxPoint x="440" y="390" as="targetPoint" />
          </mxGeometry>
        </mxCell>
        <mxCell id="zfg7dTt8C2hyI2b0fm2k-66" value="" style="endArrow=classic;html=1;rounded=0;entryX=0.127;entryY=1.156;entryDx=0;entryDy=0;entryPerimeter=0;fillColor=#a20025;strokeColor=#6F0000;exitX=1;exitY=0.25;exitDx=0;exitDy=0;" edge="1" parent="1" source="zfg7dTt8C2hyI2b0fm2k-8" target="zfg7dTt8C2hyI2b0fm2k-16">
          <mxGeometry width="50" height="50" relative="1" as="geometry">
            <mxPoint x="270" y="699.99" as="sourcePoint" />
            <mxPoint x="320" y="649.99" as="targetPoint" />
          </mxGeometry>
        </mxCell>
        <mxCell id="zfg7dTt8C2hyI2b0fm2k-67" value="" style="endArrow=classic;html=1;rounded=0;entryX=0.553;entryY=1.111;entryDx=0;entryDy=0;entryPerimeter=0;fillColor=#008a00;strokeColor=#005700;" edge="1" parent="1" source="zfg7dTt8C2hyI2b0fm2k-9" target="zfg7dTt8C2hyI2b0fm2k-16">
          <mxGeometry width="50" height="50" relative="1" as="geometry">
            <mxPoint x="310" y="450" as="sourcePoint" />
            <mxPoint x="360" y="400" as="targetPoint" />
          </mxGeometry>
        </mxCell>
        <mxCell id="zfg7dTt8C2hyI2b0fm2k-68" value="" style="endArrow=classic;html=1;rounded=0;entryX=0.876;entryY=1.089;entryDx=0;entryDy=0;entryPerimeter=0;exitX=0.75;exitY=0;exitDx=0;exitDy=0;fillColor=#008a00;strokeColor=#005700;" edge="1" parent="1" source="zfg7dTt8C2hyI2b0fm2k-10" target="zfg7dTt8C2hyI2b0fm2k-16">
          <mxGeometry width="50" height="50" relative="1" as="geometry">
            <mxPoint x="390" y="440" as="sourcePoint" />
            <mxPoint x="440" y="390" as="targetPoint" />
          </mxGeometry>
        </mxCell>
        <mxCell id="zfg7dTt8C2hyI2b0fm2k-70" value="Virtual Shadow Map Tile State" style="text;html=1;align=center;verticalAlign=middle;whiteSpace=wrap;rounded=0;fontStyle=1" vertex="1" parent="1">
          <mxGeometry x="226.89" y="230" width="201.24" height="30" as="geometry" />
        </mxCell>
      </root>
    </mxGraphModel>
  </diagram>
</mxfile>
